<svg width="15" height="22" viewBox="0 0 15 22" fill="none" xmlns="http://www.w3.org/2000/svg">
<path d="M3.16667 0.899999L3.16626 0.900001C2.56633 0.902458 1.99146 1.13924 1.56691 1.55912C1.14232 1.97905 0.902489 2.54811 0.9 3.14244V3.14286L0.899999 18.8571L0.900001 18.8576C0.902489 19.4519 1.14232 20.021 1.56691 20.4409C1.99146 20.8608 2.56633 21.0975 3.16626 21.1H3.16667H11.8333H11.8337C12.4337 21.0975 13.0085 20.8608 13.4331 20.4409C13.8577 20.021 14.0975 19.4519 14.1 18.8576V18.8571L14.1 3.14286L14.1 3.14244C14.0975 2.54811 13.8577 1.97905 13.4331 1.55912C13.0085 1.13924 12.4337 0.902458 11.8337 0.900001L11.8333 1V0.9L3.16667 0.899999ZM12.4556 18.8571C12.4556 19.0197 12.3903 19.1758 12.2737 19.2911C12.1571 19.4064 11.9987 19.4714 11.8333 19.4714H3.16667C3.00129 19.4714 2.8429 19.4064 2.7263 19.2911C2.60973 19.1758 2.54444 19.0197 2.54444 18.8571V3.14286C2.54444 2.9803 2.60973 2.82417 2.7263 2.70888C2.8429 2.59356 3.00129 2.52857 3.16667 2.52857H11.8333C11.9987 2.52857 12.1571 2.59356 12.2737 2.70888C12.3903 2.82417 12.4556 2.9803 12.4556 3.14286V18.8571ZM8.48362 5.57981C8.61379 5.38714 8.68333 5.16051 8.68333 4.92857C8.68333 4.61753 8.55839 4.31945 8.33635 4.09986C8.11435 3.8803 7.81349 3.75714 7.5 3.75714C7.2662 3.75714 7.03757 3.8257 6.843 3.95428C6.64842 4.08287 6.49659 4.26575 6.40689 4.47992C6.31719 4.69411 6.2937 4.92986 6.33945 5.15731C6.38519 5.38476 6.49807 5.59353 6.66365 5.75729C6.82921 5.92103 7.04002 6.03242 7.26935 6.07753C7.49868 6.12265 7.73639 6.0995 7.95248 6.01098C8.16858 5.92245 8.35346 5.77246 8.48362 5.57981Z" fill="url(#paint0_linear_707_109)" stroke="#41AAB1" stroke-width="0.2"/>
<defs>
<linearGradient id="paint0_linear_707_109" x1="7.5" y1="1" x2="7.5" y2="21" gradientUnits="userSpaceOnUse">
<stop stop-color="#41AAB1"/>
<stop offset="1" stop-color="#C26B91"/>
</linearGradient>
</defs>
</svg>
